<?xml version="1.0" encoding="UTF-8"?>
<svg version="1.1" xmlns="http://www.w3.org/2000/svg" width="1042" height="1042">
<path d="M0 0 C-1 3 -1 3 -2.9609375 4.2109375 C-4.56405056 4.98395965 -6.16821199 5.7548116 -7.7734375 6.5234375 C-10.45819206 8.30385368 -11.53221329 10.16859209 -13 13 C-11.05985937 12.77139428 -9.12282586 12.51630819 -7.1875 12.25 C-6.10855469 12.11078125 -5.02960938 11.9715625 -3.91796875 11.828125 C-0.53015472 10.86665703 0.14491828 9.87918046 2 7 C2.66 7 3.32 7 4 7 C4.33 7.99 4.66 8.98 5 10 C4.67 10.33 4.34 10.66 4 11 C4.99 11.33 5.98 11.66 7 12 C6.67 13.32 6.34 14.64 6 16 C1.17294986 15.06140692 1.17294986 15.06140692 -0.73828125 14.3828125 C-4.02034166 13.82729968 -6.70393365 14.58434365 -9.9375 15.3125 C-11.14277344 15.57675781 -12.34804688 15.84101563 -13.58984375 16.11328125 C-17.32338608 17.00776439 -17.32338608 17.00776439 -22 19 C-16.72 19.33 -11.44 19.66 -6 20 C-6.33 20.99 -6.66 21.98 -7 23 C-13.38612565 23.12521815 -13.38612565 23.12521815 -16.35546875 22.51953125 C-26.35323714 20.55542018 -34.23986581 22.04328542 -43 27 C-44.10601562 27.62390625 -45.21203125 28.2478125 -46.3515625 28.890625 C-49.25430647 30.56293183 -52.13457106 32.26474024 -55 34 C-54.10023438 33.75765625 -53.20046875 33.5153125 -52.2734375 33.265625 C-36.92587837 29.22968006 -20.90973189 25.46621925 -5 25 C-4.29182129 24.97421875 -3.58364258 24.9484375 -2.85400391 24.921875 C41.03787468 23.49129839 82.01033858 36.70891168 117 63 C117.95003906 63.70382813 118.90007812 64.40765625 119.87890625 65.1328125 C150.97797762 89.34735662 172.49637674 123.21021152 183 161 C183.0630835 161.69730225 183.12616699 162.39460449 183.19116211 163.11303711 C183.45807861 163.73573486 183.72499512 164.35843262 184 165 C185.98 165.66 187.96 166.32 190 167 C190.33 177.56 190.66 188.12 191 199 C202.22 199 213.44 199 225 199 C225.28932872 188.51393467 225.28932872 188.51393467 225.56811523 178.02758789 C225.60622314 176.73071045 225.64433105 175.43383301 225.68359375 174.09765625 C225.70006958 173.41183472 225.71654541 172.72601318 225.73352051 172.01940918 C225.8859282 167.1140718 225.8859282 167.1140718 227 166 C229.46981769 165.8997926 231.90551224 165.86122962 234.375 165.875 C235.40367187 165.86919922 235.40367187 165.86919922 236.453125 165.86328125 C239.57222638 165.86934954 242.01975635 166.00658545 245 167 C246.82532586 167.08826965 248.65374689 167.11763203 250.48120117 167.11352539 C252.16260445 167.11341209 252.16260445 167.11341209 253.87797546 167.11329651 C255.08742325 167.10813522 256.29687103 167.10297394 257.54296875 167.09765625 C258.78170242 167.0962413 260.0204361 167.09482635 261.29670715 167.09336853 C264.58631537 167.08871602 267.8758746 167.0797339 271.16546631 167.06866455 C274.52371623 167.05842629 277.88197333 167.05386574 281.24023438 167.04882812 C287.8268446 167.03779145 294.41341278 167.0205229 301 167 C301 172.28 301 177.56 301 183 C288.13 183 275.26 183 262 183 C262 188.61 262 194.22 262 200 C273.55 200 285.1 200 297 200 C297 205.28 297 210.56 297 216 C285.45 216 273.9 216 262 216 C262 221.61 262 227.22 262 233 C275.53 233 289.06 233 303 233 C303 238.28 303 243.56 303 249 C277.59 249 252.18 249 226 249 C226 238.11 226 227.22 226 216 C214.12 216 202.24 216 190 216 C190 226.89 190 237.78 190 249 C188.35 249.33 186.7 249.66 185 250 C184.67128906 251.27230469 184.34257813 252.54460937 184.00390625 253.85546875 C178.9189382 272.91175678 172.04979061 297.16772054 157 311 C158.38195903 307.11988427 160.26102579 303.71943776 162.32519531 300.17797852 C171.69676045 284.02417436 177.67342049 266.83597078 183 249 C179.7 249 176.4 249 173 249 C172.67 247.02 172.34 245.04 172 243 C171.27296875 243.47050781 170.5459375 243.94101562 169.796875 244.42578125 C158.36750434 251.50319923 146.84673718 254.93691735 133.375 252.53125 C122.26577047 249.61507725 113.43612673 243.4092755 107.53125 233.546875 C101.30318245 221.74251441 100.29672775 208.7395165 102.58203125 195.671875 C105.34462217 186.84167571 112.25524693 178.98461023 120.03515625 174.02734375 C130.16137198 168.73272201 141.68766603 167.36312288 153 169 C154.32 169.66 155.64 170.32 157 171 C156.34 176.28 155.68 181.56 155 187 C152.69 186.67 150.38 186.34 148 186 C139.9111979 185.19227368 133.70833036 186.19276687 127 191 C121.92257367 196.01783212 120.01368264 202.20355994 119.625 209.25 C119.84351212 217.25300654 122.89390792 224.86045649 128.4453125 230.6328125 C133.55596744 235.12710705 139.36842968 236.14671616 146 236 C153.11551225 234.89290368 158.75635701 231.91505961 164 227 C164.33 226.34 164.66 225.68 165 225 C167.90542812 226.3024333 169.8092961 227.70886268 172 230 C172.01030746 229.21295181 172.02061493 228.42590363 172.03123474 227.61500549 C172.12904188 220.21301893 172.23153186 212.81111932 172.33933926 205.40927219 C172.39460294 201.60352595 172.44802829 197.79777208 172.49731445 193.99194336 C172.54490741 190.32200665 172.59724809 186.65216609 172.65294075 182.98234367 C172.67338737 181.57927773 172.69209657 180.1761854 172.70907402 178.7730732 C172.73306687 176.81423074 172.76370199 174.85547299 172.79467773 172.89672852 C172.81799416 171.22127708 172.81799416 171.22127708 172.84178162 169.51197815 C173 167 173 167 174 166 C176.67058851 165.85884839 179.32432238 165.95752893 182 166 C172.28845325 133.74877272 157.99097266 106.6558362 135 82 C133.97132813 80.89011719 133.97132813 80.89011719 132.921875 79.7578125 C102.61048418 48.21151317 57.07357033 29.04373027 13.59375 27.78125 C-14.65376741 27.26424053 -49.54415923 29.92345129 -74 46 C-72.906875 45.67 -71.81375 45.34 -70.6875 45 C-63.05199947 43.13504589 -55.61207977 42.75915763 -48.65625 46.79296875 C-45.46720123 49.11706325 -43.46591436 51.56343073 -42.25 55.3125 C-42.1675 55.869375 -42.085 56.42625 -42 57 C-44.49370127 55.84906095 -46.60875485 54.57651836 -48.875 53 C-57.51819148 47.46835745 -68.23545516 47.70935185 -78.0390625 49.734375 C-90.78624848 52.94272244 -102.01352177 60.51522757 -111 70 C-110.42894531 69.7834375 -109.85789062 69.566875 -109.26953125 69.34375 C-97.57713752 65.32855597 -86.36234062 66.10490357 -75 71 C-74.67 71.66 -74.34 72.32 -74 73 C-74.76441406 73.01458252 -75.52882813 73.02916504 -76.31640625 73.04418945 C-103.45502406 72.17077331 -103.45502406 72.17077331 -126.75 83.5 C-127.34296875 84.0878125 -127.9359375 84.675625 -128.546875 85.28125 C-130.22165483 87.04661092 -130.22165483 87.04661092 -131 90 C-130.39414062 89.6390625 -129.78828125 89.278125 -129.1640625 88.90625 C-123.10608026 85.55105983 -117.94700968 83.53391029 -111 85 C-108.07970283 86.37481523 -105.53932786 88.01393351 -103 90 C-103.33 90.99 -103.66 91.98 -104 93 C-104.76030518 93.09498779 -105.52061035 93.18997559 -106.30395508 93.2878418 C-109.80938689 93.73630073 -113.31067612 94.21171862 -116.8125 94.6875 C-118.00810547 94.83638672 -119.20371094 94.98527344 -120.43554688 95.13867188 C-129.45106741 96.39150988 -138.26497269 97.99934665 -144.69140625 104.8828125 C-145.30886719 105.95273437 -145.92632812 107.02265625 -146.5625 108.125 C-146.91489746 108.7240918 -147.26729492 109.32318359 -147.63037109 109.94042969 C-148.78948295 111.94211694 -149.89559702 113.96767323 -151 116 C-151.41137207 116.7312207 -151.82274414 117.46244141 -152.24658203 118.21582031 C-157.0074055 126.68391632 -161.32704182 135.2631473 -164.875 144.3125 C-165.26776123 145.31361816 -165.26776123 145.31361816 -165.66845703 146.33496094 C-167.38943544 150.92055703 -168.76270632 155.57804661 -170.09814453 160.28979492 C-170.45522491 161.54733078 -170.8123053 162.80486664 -171.1802063 164.10050964 C-171.58600418 165.53575737 -171.58600418 165.53575737 -172 167 C-171.31953959 166.99723462 -170.63907919 166.99446924 -169.93799877 166.99162006 C-153.34389992 166.92522739 -136.74984341 166.875655 -120.15564251 166.84456348 C-112.13064985 166.82912636 -104.10574611 166.80809754 -96.08081055 166.77368164 C-89.0823362 166.74368228 -82.0839263 166.72440209 -75.08538944 166.71773452 C-71.38327318 166.71384001 -67.6813412 166.70475407 -63.97928429 166.68280983 C-59.83596159 166.65845153 -55.69295471 166.65803673 -51.54956055 166.65942383 C-50.33610962 166.648638 -49.12265869 166.63785217 -47.87243652 166.6267395 C-38.25564479 166.6614489 -28.62564664 167.6157377 -21 174 C-17.4026575 177.63201568 -14.50818832 181.02297855 -13 186 C-12.64808594 185.48050781 -12.29617188 184.96101562 -11.93359375 184.42578125 C-5.51322828 175.35680548 1.28614255 171.767759 12 169.3125 C19.36841686 168.54495658 25.83616536 169.10319272 33 171 C32.85795259 172.58367747 32.71119847 174.16693318 32.5625 175.75 C32.48128906 176.63171875 32.40007812 177.5134375 32.31640625 178.421875 C32.03761535 180.69350452 31.61209423 182.79851823 31 185 C30.154375 185.15855469 29.30875 185.31710937 28.4375 185.48046875 C18.15092533 187.19292607 18.15092533 187.19292607 10 193 C9.73189552 195.72380574 9.85677677 198.25067563 10 201 C10.57331055 201.05945801 11.14662109 201.11891602 11.73730469 201.18017578 C23.1551031 202.42363036 33.23539973 203.54515463 43 210 C43.63035156 210.4021875 44.26070312 210.804375 44.91015625 211.21875 C49.94328881 214.87921005 52.09392858 220.28178573 54 226 C54.71775542 232.99811531 53.87178194 239.16298024 49.59375 244.87890625 C42.03732891 253.13037551 32.13498813 256.35473182 21.2421875 257.21875 C14.88565071 257.43122477 9.87368689 256.33353839 4 254 C2.824375 253.608125 1.64875 253.21625 0.4375 252.8125 C-0.366875 252.544375 -1.17125 252.27625 -2 252 C-1.44854729 246.76119922 -0.57077907 242.02649303 1 237 C1.67417969 237.15855469 2.34835937 237.31710937 3.04296875 237.48046875 C12.17871041 239.08555942 21.17659027 239.31991862 29 234 C30.50662097 230.98675805 30.17770373 228.31713623 30 225 C27.64216331 222.64216331 26.9245782 222.68627169 23.703125 222.39453125 C-0.31171106 219.84383054 -0.31171106 219.84383054 -9.18359375 210.765625 C-10.61979719 208.89491198 -11.8721046 207.06780824 -13 205 C-13.23074219 205.51949219 -13.46148437 206.03898438 -13.69921875 206.57421875 C-16.95788604 213.54235711 -21.16484593 218.26001004 -28 222 C-35.83069517 224.56198345 -43.85409717 224.15972358 -52 224 C-52 232.25 -52 240.5 -52 249 C-57.61 249 -63.22 249 -69 249 C-69 226.89 -69 204.78 -69 182 C-71.31 182 -73.62 182 -76 182 C-76 204.77 -76 227.54 -76 251 C-82.27 251 -88.54 251 -95 251 C-95 239.45 -95 227.9 -95 216 C-101.6 216 -108.2 216 -115 216 C-115.33 218.97 -115.66 221.94 -116 225 C-117.5 227.5625 -117.5 227.5625 -120 229 C-124.83939047 229.99074136 -128.83798313 229.46044742 -133.125 227 C-138.13763684 223.48412246 -143.03956538 218.88130386 -145 213 C-145.68302023 205.94212429 -145.68302023 205.94212429 -143.11303711 202.3972168 C-138.66893619 198.97500466 -135.12529153 199.36478917 -129.66796875 199.51171875 C-128.67622147 199.51879349 -127.68447418 199.52586823 -126.66267395 199.53315735 C-123.50350658 199.56108567 -120.34612918 199.6238228 -117.1875 199.6875 C-115.04234335 199.71258482 -112.89715885 199.73539766 -110.75195312 199.75585938 C-105.50061525 199.81090756 -100.25061082 199.89717092 -95 200 C-95 194.06 -95 188.12 -95 182 C-116.45 182 -137.9 182 -160 182 C-160 204.77 -160 227.54 -160 251 C-163.96 251 -167.92 251 -172 251 C-162.58961931 284.96461904 -147.4250831 314.22684211 -122 339 C-120.56114833 340.43614706 -119.12374399 341.87374509 -117.6875 343.3125 C-116.64142578 344.35857422 -116.64142578 344.35857422 -115.57421875 345.42578125 C-115.05472656 345.94527344 -114.53523438 346.46476562 -114 347 C-118.2861169 347 -120.1674068 344.48674192 -123.125 341.6875 C-123.70540039 341.14351562 -124.28580078 340.59953125 -124.88378906 340.0390625 C-130.09227197 335.06981816 -134.63739739 329.72541193 -139 324 C-140.12341797 322.56527344 -140.12341797 322.56527344 -141.26953125 321.1015625 C-155.09630938 303.15266142 -174 274.55255948 -174 251 C-175.65 251 -177.3 251 -179 251 C-179 241.43 -179 231.86 -179 222 C-186.92 222 -194.84 222 -203 222 C-203.495 225.96 -203.495 225.96 -204 230 C-205.4375 232.5 -205.4375 232.5 -208 234 C-212.86494331 234.80108843 -216.73973042 234.61777921 -221.1875 232.4375 C-232.41121495 222.71028037 -232.41121495 222.71028037 -233.4375 214.5 C-233 211 -233 211 -230.875 208.0625 C-228 206 -228 206 -222 206 C-222 198.08 -222 190.16 -222 182 C-226.95 182 -231.9 182 -237 182 C-237 177.05 -237 172.1 -237 167 C-216.21 167 -195.42 167 -174 167 C-172.68 161.72 -171.36 156.44 -170 151 C-162.92523116 129.77569348 -152.18627486 109.85984618 -137.625 92.8125 C-128.74159583 81.79049853 -128.31826491 70.49835473 -129 57 C-128.01 57 -127.02 57 -126 57 C-125.07295327 62.05661852 -125.09906449 66.18650714 -125.9375 71.25 C-126.73740406 76.10364957 -126.73740406 76.10364957 -127 81 C-125.67532989 79.78395887 -124.36567595 78.55154778 -123.0625 77.3125 C-121.96615234 76.28576172 -121.96615234 76.28576172 -120.84765625 75.23828125 C-118.75732775 72.70602284 -118.24591494 71.24812643 -118 68 C-118.29268736 65.9706418 -118.29268736 65.9706418 -118.9375 64.0625 C-119.91016453 60.62227041 -120.17977365 57.59547296 -120 54 C-116.52618636 53.05259628 -114.74720784 52.60771588 -111.5 54.3125 C-109.10772693 58.59865592 -110.71567417 62.45279234 -112 67 C-99.9469174 52.61875657 -92.26376298 38.2239666 -93 19 C-89.44301024 20.92269717 -87.13891335 22.55329391 -85 26 C-83.15965433 34.67387725 -86.47356763 41.75355552 -91 49 C-92.3049264 50.68900049 -93.63068078 52.3627705 -95 54 C-94.16339844 53.5153125 -93.32679688 53.030625 -92.46484375 52.53125 C-86.20160485 48.91987373 -79.91079397 45.40546948 -73.5 42.0625 C-67.75021889 39.0504251 -62.273697 35.74276288 -56.87182617 32.14477539 C-53.60870061 29.9798487 -50.35240606 28.16415616 -46.8125 26.5 C-43.43323707 24.69190729 -42.35472152 23.27410307 -41.1875 19.625 C-40.98898437 18.84898437 -40.79046875 18.07296875 -40.5859375 17.2734375 C-38.91463742 10.78879319 -35.44290853 7.15420892 -29.8046875 3.75 C-29.20914063 3.5025 -28.61359375 3.255 -28 3 C-27.01 3.495 -27.01 3.495 -26 4 C-27.49128001 7.79598549 -29.65733441 9.71720399 -33 12 C-33.99 12 -34.98 12 -36 12 C-36.28875 12.721875 -36.5775 13.44375 -36.875 14.1875 C-37.91666667 16.79166667 -38.95833333 19.39583333 -40 22 C-36.27659478 20.87819906 -32.57554046 19.6948733 -28.875 18.5 C-27.82828125 18.18546875 -26.7815625 17.8709375 -25.703125 17.546875 C-19.41903086 15.47869212 -15.73178167 13.58302957 -12.21240234 7.87866211 C-9.43555099 3.57582861 -5.21829273 0 0 0 Z M-203 182 C-203 189.92 -203 197.84 -203 206 C-195.08 206 -187.16 206 -179 206 C-179 198.08 -179 190.16 -179 182 C-186.92 182 -194.84 182 -203 182 Z M-52 183 C-52 190.92 -52 198.84 -52 207 C-49.463125 207.0825 -46.92625 207.165 -44.3125 207.25 C-43.52270752 207.28641602 -42.73291504 207.32283203 -41.91918945 207.36035156 C-38.09482959 207.42031118 -36.37314201 207.24164915 -33.0625 205.09765625 C-29.9101688 201.89159213 -29.10532151 200.1374723 -28.6875 195.625 C-29.03877627 191.55019522 -29.64316828 189.34518051 -32 186 C-38.25712741 181.91926473 -44.71222776 182.77460498 -52 183 Z " fill="#000000" transform="translate(496,187)"/>
<path d="M0 0 C18.48 0 36.96 0 56 0 C56 5.28 56 10.56 56 16 C43.13 16 30.26 16 17 16 C17 21.61 17 27.22 17 33 C28.55 33 40.1 33 52 33 C52 38.28 52 43.56 52 49 C40.45 49 28.9 49 17 49 C17 54.61 17 60.22 17 66 C30.53 66 44.06 66 58 66 C58 71.28 58 76.56 58 82 C39.19 82 20.38 82 1 82 C0.67 54.94 0.34 27.88 0 0 Z " fill="#000000" transform="translate(741,354)"/>
<path d="M0 0 C0.625 1.875 0.625 1.875 1 4 C0.34 4.66 -0.32 5.32 -1 6 C4.61 17.22 10.22 28.44 16 40 C22.40861809 27.58482238 22.40861809 27.58482238 27 15 C27.33 14.34 27.66 13.68 28 13 C28.66 13 29.32 13 30 13 C30.6814823 11.10820797 30.6814823 11.10820797 31 9 C30.34 8.34 29.68 7.68 29 7 C31.875 1.125 31.875 1.125 33 0 C35.07262076 -0.08767112 37.14820294 -0.10695873 39.22265625 -0.09765625 C40.48271484 -0.09443359 41.74277344 -0.09121094 43.04101562 -0.08789062 C44.38151109 -0.07953403 45.72200588 -0.07106907 47.0625 -0.0625 C48.40689942 -0.0574866 49.7513006 -0.05292342 51.09570312 -0.04882812 C54.39717941 -0.03699488 57.69856803 -0.02050971 61 0 C60.67 1.32 60.34 2.64 60 4 C59.23502197 4.07065674 58.47004395 4.14131348 57.68188477 4.21411133 C54.88792524 4.75396829 54.88792524 4.75396829 53.42944336 6.9675293 C52.98737549 7.82773682 52.54530762 8.68794434 52.08984375 9.57421875 C51.58066406 10.54157959 51.07148437 11.50894043 50.546875 12.50561523 C50.01578125 13.55563721 49.4846875 14.60565918 48.9375 15.6875 C47.79098771 17.88053421 46.64383749 20.07323502 45.49609375 22.265625 C44.91714355 23.38517578 44.33819336 24.50472656 43.74169922 25.65820312 C41.06659043 30.79093219 38.28430649 35.86343603 35.5 40.9375 C33.40518042 44.77815057 33.40518042 44.77815057 31.32495117 48.62670898 C30.45525219 50.18453906 29.53930818 51.71760547 28.57543945 53.21899414 C24.77029781 59.30111082 24.22977432 64.46511173 24.1875 71.5625 C24.16236328 72.57119141 24.13722656 73.57988281 24.11132812 74.61914062 C24.05301818 77.0798205 24.01632939 79.53874486 24 82 C24.66 82 25.32 82 26 82 C26.33 83.98 26.66 85.96 27 88 C20.66138607 90.44900993 14.65830216 90.252852 8 89 C7.34 88.34 6.68 87.68 6 87 C6.04272461 84.71044922 6.04272461 84.71044922 6.40234375 81.8046875 C8.28539302 60.10402453 1.06509278 46.71394666 -9.9901123 28.66760254 C-11.87707035 25.55171545 -13.6448933 22.37005164 -15.41430664 19.18652344 C-16.15159085 17.86276671 -16.89990062 16.54505756 -17.66186523 15.23535156 C-20 11.20958052 -20 11.20958052 -20 9 C-20.66 8.67 -21.32 8.34 -22 8 C-22 6.68 -22 5.36 -22 4 C-14.69967977 -0.22550835 -8.31248491 -0.46251848 0 0 Z " fill="#010101" transform="translate(555,354)"/>
<path d="M0 0 C1.32 0.33 2.64 0.66 4 1 C4 1.66 4 2.32 4 3 C4.66 3.33 5.32 3.66 6 4 C5.34 4 4.68 4 4 4 C4 6.31 4 8.62 4 11 C1.69 11 -0.62 11 -3 11 C-3 12.32 -3 13.64 -3 15 C-2.030625 14.979375 -1.06125 14.95875 -0.0625 14.9375 C3 15 3 15 4 16 C4.07179964 17.51928038 4.08392007 19.04167482 4.0625 20.5625 C4.05347656 21.38878906 4.04445313 22.21507812 4.03515625 23.06640625 C4.02355469 23.70449219 4.01195312 24.34257813 4 25 C6.64 25 9.28 25 12 25 C11.79375 24.05125 11.5875 23.1025 11.375 22.125 C11.25125 21.09375 11.1275 20.0625 11 19 C13 17 13 17 15.9375 16.6875 C19 17 19 17 20.9375 18.1875 C22 20 22 20 21.6875 22.6875 C21.3471875 23.8321875 21.3471875 23.8321875 21 25 C22.65 25 24.3 25 26 25 C25.855625 26.06992187 25.71125 27.13984375 25.5625 28.2421875 C24.17451863 39.38693436 23.83456384 50.30985658 24.07421875 61.54052734 C24.09097656 62.61125488 24.10773438 63.68198242 24.125 64.78515625 C24.14820313 65.74301025 24.17140625 66.70086426 24.1953125 67.68774414 C24 70 24 70 22 72 C19.10867823 72.17179052 16.32557935 72.2322947 13.4375 72.1875 C12.64408203 72.18685547 11.85066406 72.18621094 11.03320312 72.18554688 C5.14025522 72.14025522 5.14025522 72.14025522 4 71 C3.76472227 68.65012738 3.58613583 66.29443961 3.4375 63.9375 C3.35371094 62.64714844 3.26992188 61.35679687 3.18359375 60.02734375 C3.12300781 59.02832031 3.06242187 58.02929688 3 57 C2.25878906 57.16113281 1.51757812 57.32226562 0.75390625 57.48828125 C-3.57266706 58.29222608 -7.91452949 58.64657061 -12.1796875 57.32421875 C-14 56 -14 56 -14.72265625 53.5390625 C-14.83480469 52.57742188 -14.94695312 51.61578125 -15.0625 50.625 C-15.55642587 46.50710118 -16.16924127 44.09184813 -19 41 C-21.58443323 39.26509754 -21.58443323 39.26509754 -24 38 C-23.59286174 35.15003219 -23.14134829 33.21506218 -21.546875 30.7890625 C-19.09637114 26.37072977 -18.73444966 21.63421143 -17.94140625 16.69140625 C-16.60111216 11.43589622 -14.40600873 8.12480699 -10.1875 4.75 C-6.74601734 2.86055854 -3.79931301 1.91183512 0 1 C0 0.67 0 0.34 0 0 Z " fill="#FAC220" transform="translate(388,540)"/>
<path d="M0 0 C0 4.0435344 -1.99427442 5.64021582 -4.625 8.4375 C-5.11645508 8.9639209 -5.60791016 9.4903418 -6.11425781 10.03271484 C-16.20130793 20.62002727 -27.54586082 29.38203559 -40 37 C-40.67482422 37.41491699 -41.34964844 37.82983398 -42.04492188 38.25732422 C-61.94159986 50.31493359 -83.24878122 57.48414715 -106 62 C-106.7213916 62.14550293 -107.4427832 62.29100586 -108.18603516 62.44091797 C-148.51894271 70.13554158 -193.90703696 60.6758731 -229.00976562 40.02001953 C-231.00251622 38.99871041 -232.81367209 38.4498743 -235 38 C-236.10844919 34.67465243 -235.84454356 32.37817425 -235 29 C-235.94875 29.04125 -236.8975 29.0825 -237.875 29.125 C-241 29 -241 29 -243 27 C-242.42307692 20.42307692 -242.42307692 20.42307692 -241 19 C-239.00041636 18.95919217 -236.99954746 18.95745644 -235 19 C-235 17.02 -235 15.04 -235 13 C-230.32889214 11.53103169 -226.57161918 12.52913122 -222 14 C-216.85671126 16.71720915 -213.23012935 20.197782 -211.3984375 25.859375 C-210.93208595 28.36487156 -210.90398551 30.70289897 -210.9375 33.25 C-210.94652344 34.14203125 -210.95554687 35.0340625 -210.96484375 35.953125 C-210.97644531 36.62859375 -210.98804688 37.3040625 -211 38 C-213.31 38 -215.62 38 -218 38 C-218 35.36 -218 32.72 -218 30 C-219.65 30 -221.3 30 -223 30 C-222.773125 30.928125 -222.54625 31.85625 -222.3125 32.8125 C-222.209375 33.864375 -222.10625 34.91625 -222 36 C-223.48046875 37.69921875 -223.48046875 37.69921875 -225 39 C-179.38112886 62.92815448 -129.14452066 68.27387919 -79.76855469 52.92285156 C-53.70557037 44.23519012 -28.87314226 29.73527362 -9.859375 9.75 C-8 8 -8 8 -6 8 C-5.7525 7.4225 -5.505 6.845 -5.25 6.25 C-3.83316683 3.6997003 -2.12372463 1.98214299 0 0 Z " fill="#F8206F" transform="translate(638,516)"/>
<path d="M0 0 C1.32 0.33 2.64 0.66 4 1 C4 1.66 4 2.32 4 3 C4.66 3.33 5.32 3.66 6 4 C5.34 4 4.68 4 4 4 C4 6.31 4 8.62 4 11 C1.69 11 -0.62 11 -3 11 C-3 12.32 -3 13.64 -3 15 C-2.030625 14.979375 -1.06125 14.95875 -0.0625 14.9375 C3 15 3 15 4 16 C4.07179964 17.51928038 4.08392007 19.04167482 4.0625 20.5625 C4.05347656 21.38878906 4.04445313 22.21507812 4.03515625 23.06640625 C4.02355469 23.70449219 4.01195312 24.34257813 4 25 C6.64 25 9.28 25 12 25 C11.79375 24.05125 11.5875 23.1025 11.375 22.125 C11.25125 21.09375 11.1275 20.0625 11 19 C13 17 13 17 15.9375 16.6875 C19 17 19 17 20.9375 18.1875 C22 20 22 20 21.6875 22.6875 C21.3471875 23.8321875 21.3471875 23.8321875 21 25 C22.65 25 24.3 25 26 25 C25.855625 26.06992187 25.71125 27.13984375 25.5625 28.2421875 C24.17451863 39.38693436 23.83456384 50.30985658 24.07421875 61.54052734 C24.09097656 62.61125488 24.10773438 63.68198242 24.125 64.78515625 C24.14820313 65.74301025 24.17140625 66.70086426 24.1953125 67.68774414 C24 70 24 70 22 72 C19.10867823 72.17179052 16.32557935 72.2322947 13.4375 72.1875 C12.64408203 72.18685547 11.85066406 72.18621094 11.03320312 72.18554688 C5.14025522 72.14025522 5.14025522 72.14025522 4 71 C3.76472227 68.65012738 3.58613583 66.29443961 3.4375 63.9375 C3.35371094 62.64714844 3.26992188 61.35679687 3.18359375 60.02734375 C3.12300781 59.02832031 3.06242187 58.02929688 3 57 C2.25878906 57.16113281 1.51757812 57.32226562 0.75390625 57.48828125 C-4.31047239 58.42932182 -9.51916746 58.98722169 -14 56 C-14 55.34 -14 54.68 -14 54 C-13.01 54.33 -12.02 54.66 -11 55 C-7.01969049 55.13050195 -3.5994426 55.11310238 0.3125 54.375 C3 54 3 54 6 56 C6.73166661 60.65809121 6.78552051 65.28145119 7 70 C11.62 70 16.24 70 21 70 C20.97679687 68.15277344 20.95359375 66.30554688 20.9296875 64.40234375 C20.70943782 39.02545142 20.70943782 39.02545142 23 27 C21.68 26.67 20.36 26.34 19 26 C19 24.02 19 22.04 19 20 C17.35 20 15.7 20 14 20 C14.020625 20.969375 14.04125 21.93875 14.0625 22.9375 C14 26 14 26 13 27 C11.14712498 27.07226502 9.29166122 27.0838122 7.4375 27.0625 C6.42558594 27.05347656 5.41367187 27.04445313 4.37109375 27.03515625 C3.19740234 27.01775391 3.19740234 27.01775391 2 27 C2 23.7 2 20.4 2 17 C1.05125 17.20625 0.1025 17.4125 -0.875 17.625 C-1.90625 17.74875 -2.9375 17.8725 -4 18 C-6 16 -6 16 -6.25 13 C-6 10 -6 10 -4 8 C-1.375 7.875 -1.375 7.875 1 8 C1.33 6.68 1.66 5.36 2 4 C-4.40763369 4.95402546 -8.52358668 6.19604425 -13 11 C-14.28567791 13.7642075 -14.88135001 16.33399297 -15.4140625 19.32421875 C-16.48241605 25.23637866 -18.16145463 29.70138197 -21 35 C-21 35.66 -21 36.32 -21 37 C-20.195625 37.433125 -19.39125 37.86625 -18.5625 38.3125 C-16 40 -16 40 -15.1875 42.6875 C-15.125625 43.450625 -15.06375 44.21375 -15 45 C-15.556875 44.401875 -16.11375 43.80375 -16.6875 43.1875 C-18.98556429 41.0136554 -21.24416549 39.53101917 -24 38 C-23.59286174 35.15003219 -23.14134829 33.21506218 -21.546875 30.7890625 C-19.09637114 26.37072977 -18.73444966 21.63421143 -17.94140625 16.69140625 C-16.60111216 11.43589622 -14.40600873 8.12480699 -10.1875 4.75 C-6.74601734 2.86055854 -3.79931301 1.91183512 0 1 C0 0.67 0 0.34 0 0 Z " fill="#46544C" transform="translate(388,540)"/>
<path d="M0 0 C0 4.0435344 -1.99427442 5.64021582 -4.625 8.4375 C-5.11645508 8.9639209 -5.60791016 9.4903418 -6.11425781 10.03271484 C-16.20130793 20.62002727 -27.54586082 29.38203559 -40 37 C-40.67482422 37.41491699 -41.34964844 37.82983398 -42.04492188 38.25732422 C-61.94159986 50.31493359 -83.24878122 57.48414715 -106 62 C-106.7213916 62.14550293 -107.4427832 62.29100586 -108.18603516 62.44091797 C-147.88177091 70.01398334 -196.26605585 61.49723584 -230 39 C-229.01 38.505 -229.01 38.505 -228 38 C-225.94726562 38.80102539 -225.94726562 38.80102539 -223.40625 40.09765625 C-222.4678125 40.56671387 -221.529375 41.03577148 -220.5625 41.51904297 C-219.551875 42.02838379 -218.54125 42.53772461 -217.5 43.0625 C-173.55531222 64.55215936 -123.37902485 67.45967495 -77 52 C-51.96614226 42.89107931 -28.32568699 29.15984618 -9.859375 9.75 C-8 8 -8 8 -6 8 C-5.7525 7.4225 -5.505 6.845 -5.25 6.25 C-3.83316683 3.6997003 -2.12372463 1.98214299 0 0 Z " fill="#070707" transform="translate(638,516)"/>
<path d="M0 0 C2.37202385 0.38860816 3.69347107 0.69262431 5.4140625 2.41796875 C9.9680341 9.07264338 11.85309317 14.90937443 11 23 C9.66324447 29.56225443 6.25171634 33.95262462 1 38 C-9.12774285 44.42329999 -20.99699589 46.63124971 -32.82421875 44.48828125 C-33.54222656 44.32714844 -34.26023437 44.16601562 -35 44 C-35 43.34 -35 42.68 -35 42 C-33.98421875 41.91363281 -32.9684375 41.82726562 -31.921875 41.73828125 C-19.53729263 40.53758089 -7.3729124 38.07267657 1 28 C4.34531263 22.55677945 4.93879399 16.24545052 4 10 C3.12232422 7.72032265 2.11538466 5.6955129 0.875 3.59375 C0 2 0 2 0 0 Z " fill="#848484" transform="translate(539,399)"/>
<path d="M0 0 C1.32 0.33 2.64 0.66 4 1 C4 27.4 4 53.8 4 81 C2.68 81 1.36 81 0 81 C0 54.27 0 27.54 0 0 Z " fill="#9C9C9C" transform="translate(738,355)"/>
<path d="M0 0 C2.97 0.495 2.97 0.495 6 1 C7.125 5.75 7.125 5.75 6 8 C7.65 8 9.3 8 11 8 C10.855625 9.06992187 10.71125 10.13984375 10.5625 11.2421875 C9.17451863 22.38693436 8.83456384 33.30985658 9.07421875 44.54052734 C9.09097656 45.61125488 9.10773438 46.68198242 9.125 47.78515625 C9.14820313 48.74301025 9.17140625 49.70086426 9.1953125 50.68774414 C9 53 9 53 7 55 C4.10867823 55.17179052 1.32557935 55.2322947 -1.5625 55.1875 C-2.35591797 55.18685547 -3.14933594 55.18621094 -3.96679688 55.18554688 C-9.85974478 55.14025522 -9.85974478 55.14025522 -11 54 C-11.23527773 51.65012738 -11.41386417 49.29443961 -11.5625 46.9375 C-11.64628906 45.64714844 -11.73007812 44.35679687 -11.81640625 43.02734375 C-11.87699219 42.02832031 -11.93757813 41.02929688 -12 40 C-12.74121094 40.16113281 -13.48242188 40.32226562 -14.24609375 40.48828125 C-19.31047239 41.42932182 -24.51916746 41.98722169 -29 39 C-29 38.34 -29 37.68 -29 37 C-28.01 37.33 -27.02 37.66 -26 38 C-22.01969049 38.13050195 -18.5994426 38.11310238 -14.6875 37.375 C-12 37 -12 37 -9 39 C-8.26833339 43.65809121 -8.21447949 48.28145119 -8 53 C-3.38 53 1.24 53 6 53 C5.97679687 51.15277344 5.95359375 49.30554688 5.9296875 47.40234375 C5.70943782 22.02545142 5.70943782 22.02545142 8 10 C6.68 9.67 5.36 9.34 4 9 C4.0825 8.071875 4.165 7.14375 4.25 6.1875 C4.35303045 2.90894778 4.35303045 2.90894778 2 1.125 C1.34 0.75375 0.68 0.3825 0 0 Z " fill="#404B49" transform="translate(403,557)"/>
<path d="M0 0 C6.70665008 0.5319427 12.86585562 1.37927006 18 6 C21.99345997 11.18070483 23.14715878 14.81593255 23.0625 21.25 C23.05347656 22.14203125 23.04445313 23.0340625 23.03515625 23.953125 C23.02355469 24.62859375 23.01195312 25.3040625 23 26 C20.69 26 18.38 26 16 26 C16 23.36 16 20.72 16 18 C14.35 18 12.7 18 11 18 C11.185625 18.94875 11.37125 19.8975 11.5625 20.875 C12 24 12 24 11 26 C2.89667897 27.46125461 2.89667897 27.46125461 -1 26 C-2.10844919 22.67465243 -1.84454356 20.37817425 -1 17 C-1.94875 17.04125 -2.8975 17.0825 -3.875 17.125 C-7 17 -7 17 -9 15 C-8.42307692 8.42307692 -8.42307692 8.42307692 -7 7 C-5.00041636 6.95919217 -2.99954746 6.95745644 -1 7 C-1.020625 6.030625 -1.04125 5.06125 -1.0625 4.0625 C-1 1 -1 1 0 0 Z M1 2 C1 4.31 1 6.62 1 9 C0.05125 8.79375 -0.8975 8.5875 -1.875 8.375 C-3.421875 8.189375 -3.421875 8.189375 -5 8 C-7.28728734 9.83883881 -7.28728734 9.83883881 -7.125 12.625 C-7.08375 13.40875 -7.0425 14.1925 -7 15 C-3.63458162 16.08174162 -2.70152678 15.92538169 1 15 C1 17.97 1 20.94 1 24 C3.97 24 6.94 24 10 24 C10 22.02 10 20.04 10 18 C14.75 16.875 14.75 16.875 17 18 C17.625 21.0625 17.625 21.0625 18 24 C18.99 24 19.98 24 21 24 C21.51635734 15.51432903 21.51635734 15.51432903 18 8 C12.80490444 3.51221792 7.76853899 2.17234706 1 2 Z " fill="#474869" transform="translate(404,528)"/>
<path d="M0 0 C2.37202385 0.38860816 3.69347107 0.69262431 5.4140625 2.41796875 C9.94704555 9.04197302 11.91137636 14.93363908 11 23 C9.98325229 26.83740265 8.8589931 30.1410069 6 33 C3.875 32.625 3.875 32.625 2 32 C2.144375 31.24976563 2.28875 30.49953125 2.4375 29.7265625 C5.0274084 16.23413256 5.0274084 16.23413256 0.875 3.59375 C0 2 0 2 0 0 Z " fill="#969696" transform="translate(539,399)"/>
<path d="M0 0 C1.16257324 0.01047363 2.32514648 0.02094727 3.52294922 0.03173828 C5.40820312 0.04140625 5.40820312 0.04140625 7.33154297 0.05126953 C9.30960938 0.07640625 9.30960938 0.07640625 11.32763672 0.10205078 C12.66747393 0.11208096 14.00731823 0.12120674 15.34716797 0.12939453 C18.63250244 0.15303003 21.91748137 0.18597844 25.20263672 0.22705078 C24.87263672 1.54705078 24.54263672 2.86705078 24.20263672 4.22705078 C20.77689735 5.00233557 17.63024427 5.34623856 14.12060547 5.32470703 C13.18925781 5.32148438 12.25791016 5.31826172 11.29833984 5.31494141 C10.33863281 5.3065625 9.37892578 5.29818359 8.39013672 5.28955078 C6.92157227 5.2827832 6.92157227 5.2827832 5.42333984 5.27587891 C3.01637561 5.26413762 0.60953815 5.24771497 -1.79736328 5.22705078 C-1.79736328 5.88705078 -1.79736328 6.54705078 -1.79736328 7.22705078 C-3.11736328 7.22705078 -4.43736328 7.22705078 -5.79736328 7.22705078 C-4.71669771 0.38283547 -4.71669771 0.38283547 0 0 Z " fill="#ADACAE" transform="translate(590.79736328125,353.77294921875)"/>
<path d="M0 0 C0 1.65 0 3.3 0 5 C-0.969375 4.979375 -1.93875 4.95875 -2.9375 4.9375 C-5.87465895 4.64381501 -5.87465895 4.64381501 -7 6 C-7.04080783 7.99958364 -7.04254356 10.00045254 -7 12 C-3.52852158 12.74957157 -3.52852158 12.74957157 0 13 C0 15.97 0 18.94 0 22 C-0.33 22 -0.66 22 -1 22 C-1 19.69 -1 17.38 -1 15 C-2.98 15.33 -4.96 15.66 -7 16 C-7 15.34 -7 14.68 -7 14 C-7.99 14.33 -8.98 14.66 -10 15 C-13 11.25 -13 11.25 -13 9 C-13.66 9 -14.32 9 -15 9 C-14.979375 9.804375 -14.95875 10.60875 -14.9375 11.4375 C-15 14 -15 14 -16 15 C-16.3931648 16.67884238 -16.74085452 18.36850045 -17.0625 20.0625 C-17.32740234 21.44115234 -17.32740234 21.44115234 -17.59765625 22.84765625 C-17.73042969 23.55792969 -17.86320312 24.26820313 -18 25 C-18.66 25 -19.32 25 -20 25 C-19.57459662 22.60144902 -19.1351976 20.20690259 -18.6875 17.8125 C-18.56955078 17.13896484 -18.45160156 16.46542969 -18.33007812 15.77148438 C-17.03432634 8.9604814 -14.739709 4.91980127 -9 1 C-5.99291505 -0.12765686 -3.19294521 -0.08869292 0 0 Z " fill="#EBC039" transform="translate(390,544)"/>
<path d="M0 0 C1.21236328 0.01353516 1.21236328 0.01353516 2.44921875 0.02734375 C3.37154297 0.04474609 3.37154297 0.04474609 4.3125 0.0625 C4.3125 0.7225 4.3125 1.3825 4.3125 2.0625 C2.16015625 3.53515625 2.16015625 3.53515625 -0.625 5.125 C-3.84580337 6.83718905 -3.84580337 6.83718905 -6.6875 9.0625 C-6.91825082 10.40997084 -7.09903063 11.76627565 -7.25 13.125 C-7.394375 14.424375 -7.53875 15.72375 -7.6875 17.0625 C-10.55474686 16.48905063 -11.5489515 16.2010485 -13.6875 14.0625 C-14.3493934 9.01556285 -14.3493934 9.01556285 -13.6875 6.0625 C-10.10629363 1.4306558 -5.66917025 -0.08216189 0 0 Z " fill="#888888" transform="translate(512.6875,370.9375)"/>
<path d="M0 0 C5.55704698 0.48322148 5.55704698 0.48322148 7.5 2.75 C8.1633991 5.73529594 7.34308748 7.31382504 6 10 C5.34 10 4.68 10 4 10 C3.67 12.64 3.34 15.28 3 18 C2.34 18 1.68 18 1 18 C-0.04449911 14.86650268 0.06576355 14.01031744 1 11 C0.34 11 -0.32 11 -1 11 C-1.33 11.99 -1.66 12.98 -2 14 C-2.33 12.35 -2.66 10.7 -3 9 C-5.31 8.67 -7.62 8.34 -10 8 C-10 7.34 -10 6.68 -10 6 C-8.72125 5.7525 -7.4425 5.505 -6.125 5.25 C-2.73252682 4.48009414 -2.73252682 4.48009414 -0.5 1.875 C-0.335 1.25625 -0.17 0.6375 0 0 Z " fill="#FB1E6D" transform="translate(409,533)"/>
<path d="M0 0 C2.97 0.33 5.94 0.66 9 1 C9 1.33 9 1.66 9 2 C6.36 2 3.72 2 1 2 C1.020625 2.969375 1.04125 3.93875 1.0625 4.9375 C1 8 1 8 0 9 C-1.99958364 9.04080783 -4.00045254 9.04254356 -6 9 C-6 9.66 -6 10.32 -6 11 C-4.88625 10.938125 -3.7725 10.87625 -2.625 10.8125 C-0.830625 10.9053125 -0.830625 10.9053125 1 11 C1.99 12.485 1.99 12.485 3 14 C3.66 14 4.32 14 5 14 C5 16.31 5 18.62 5 21 C5.66 21 6.32 21 7 21 C7 19.35 7 17.7 7 16 C9 19.75 9 19.75 9 22 C6.03 22 3.06 22 0 22 C0 19.03 0 16.06 0 13 C-1.7015625 13.2784375 -1.7015625 13.2784375 -3.4375 13.5625 C-5.2009375 13.7790625 -5.2009375 13.7790625 -7 14 C-8 13 -8 13 -8.0625 10.4375 C-8.041875 9.633125 -8.02125 8.82875 -8 8 C-5.64561267 6.57055055 -4.51967567 5.91338739 -1.75 6.375 C-1.1725 6.58125 -0.595 6.7875 0 7 C0 4.69 0 2.38 0 0 Z " fill="#D8347C" transform="translate(405,530)"/>
<path d="M0 0 C0.33 0 0.66 0 1 0 C2.44827586 17.94827586 2.44827586 17.94827586 2 24 C1 25 1 25 -2.125 25.1328125 C-3.40375 25.13023437 -4.6825 25.12765625 -6 25.125 C-7.27875 25.12757813 -8.5575 25.13015625 -9.875 25.1328125 C-13 25 -13 25 -14 24 C-14.23527773 21.65012738 -14.41386417 19.29443961 -14.5625 16.9375 C-14.64628906 15.64714844 -14.73007812 14.35679687 -14.81640625 13.02734375 C-14.87699219 12.02832031 -14.93757813 11.02929688 -15 10 C-17.31 9.67 -19.62 9.34 -22 9 C-21.67 8.34 -21.34 7.68 -21 7 C-18.36 7.33 -15.72 7.66 -13 8 C-13 12.95 -13 17.9 -13 23 C-8.71 23 -4.42 23 0 23 C0 15.41 0 7.82 0 0 Z " fill="#CBB559" transform="translate(408,586)"/>
<path d="M0 0 C1.75570312 0.02707031 1.75570312 0.02707031 3.546875 0.0546875 C4.88492188 0.08949219 4.88492188 0.08949219 6.25 0.125 C6.58 1.445 6.91 2.765 7.25 4.125 C4.90147472 5.29926264 3.51225935 5.24008173 0.8984375 5.22265625 C0.04765625 5.21943359 -0.803125 5.21621094 -1.6796875 5.21289062 C-2.56914063 5.20451172 -3.45859375 5.19613281 -4.375 5.1875 C-5.2721875 5.18298828 -6.169375 5.17847656 -7.09375 5.17382812 C-9.31256648 5.16202591 -11.53125018 5.14556155 -13.75 5.125 C-9.34591689 0.60485708 -6.37393141 -0.12747863 0 0 Z " fill="#727072" transform="translate(548.75,353.875)"/>
<path d="M0 0 C2.71667223 4.07500834 2.51686378 7.21708145 2 12 C0.98833537 15.83779873 -0.1421449 19.1421449 -3 22 C-4.32 21.67 -5.64 21.34 -7 21 C-6.34 17.04 -5.68 13.08 -5 9 C-3.68 9.99 -2.36 10.98 -1 12 C-0.67 8.04 -0.34 4.08 0 0 Z " fill="#6F6F6F" transform="translate(548,410)"/>
<path d="M0 0 C0.5534764 2.07553648 1 3.84365964 1 6 C1.66 6.66 2.32 7.32 3 8 C-1.52084209 12.49335977 -4.54972485 14.73672346 -11 15 C-10.34 14.67 -9.68 14.34 -9 14 C-9.08121094 13.25105469 -9.16242187 12.50210937 -9.24609375 11.73046875 C-9 9 -9 9 -7.28515625 7.05078125 C-6.55167969 6.47714844 -5.81820312 5.90351563 -5.0625 5.3125 C-2.06122571 3.04058366 -2.06122571 3.04058366 0 0 Z " fill="#8E8E8E" transform="translate(541,425)"/>
<path d="M0 0 C0.66 0.66 1.32 1.32 2 2 C1.625 4.625 1.625 4.625 1 7 C-5.81508864 7.82810601 -11.51870203 8.50413785 -18 6 C-18.33 4.68 -18.66 3.36 -19 2 C-18.34 1.67 -17.68 1.34 -17 1 C-17 1.99 -17 2.98 -17 4 C-11.72 4 -6.44 4 -1 4 C-0.67 2.68 -0.34 1.36 0 0 Z " fill="#AAA8A9" transform="translate(580,436)"/>
<path d="M0 0 C2.375 0.6875 2.375 0.6875 3.375 1.6875 C3.41580783 3.68708364 3.41754356 5.68795254 3.375 7.6875 C4.695 7.6875 6.015 7.6875 7.375 7.6875 C7.375 5.0475 7.375 2.4075 7.375 -0.3125 C7.705 -0.3125 8.035 -0.3125 8.375 -0.3125 C8.375 2.9875 8.375 6.2875 8.375 9.6875 C6.065 9.6875 3.755 9.6875 1.375 9.6875 C1.375 7.0475 1.375 4.4075 1.375 1.6875 C-0.275 1.6875 -1.925 1.6875 -3.625 1.6875 C-3.439375 2.656875 -3.25375 3.62625 -3.0625 4.625 C-2.918125 5.635625 -2.77375 6.64625 -2.625 7.6875 C-3.625 8.6875 -3.625 8.6875 -5.47265625 8.78515625 C-7.5234375 8.75260417 -9.57421875 8.72005208 -11.625 8.6875 C-11.625 8.3575 -11.625 8.0275 -11.625 7.6875 C-9.315 7.6875 -7.005 7.6875 -4.625 7.6875 C-4.955 5.7075 -5.285 3.7275 -5.625 1.6875 C-2.625 -0.3125 -2.625 -0.3125 0 0 Z " fill="#52426C" transform="translate(418.625,544.3125)"/>
<path d="M0 0 C0.99 0.33 1.98 0.66 3 1 C6.98030951 1.13050195 10.4005574 1.11310238 14.3125 0.375 C17 0 17 0 20 2 C20.29296875 5.2578125 20.29296875 5.2578125 20.1875 9.125 C20.16042969 10.40632812 20.13335937 11.68765625 20.10546875 13.0078125 C20.07066406 13.99523437 20.03585937 14.98265625 20 16 C19.67 16 19.34 16 19 16 C18.34 11.71 17.68 7.42 17 3 C15.35 3.33 13.7 3.66 12 4 C7.65680257 4.34777931 3.75278123 4.50185415 0 2 C0 1.34 0 0.68 0 0 Z " fill="#47554F" transform="translate(374,594)"/>
<path d="M0 0 C8.45815594 0.67086462 14.42805954 2.24006267 20.375 8.5 C22.75283813 13.62149751 22.32367278 18.44361725 22 24 C21.67 24 21.34 24 21 24 C20.91363281 23.11957031 20.82726562 22.23914063 20.73828125 21.33203125 C19.94906207 14.22469039 19.94906207 14.22469039 16.9375 7.875 C11.98783458 4.71563909 6.65455987 3.38479017 1 2 C0.67 3.32 0.34 4.64 0 6 C-0.38218767 4.34385343 -0.71395102 2.67542976 -1 1 C-0.67 0.67 -0.34 0.34 0 0 Z " fill="#413C61" transform="translate(404,528)"/>
<path d="M0 0 C0.33 0 0.66 0 1 0 C1.46877543 6.35451142 1.14785372 10.8605812 -2.125 16.40625 C-3.1604196 17.9891681 -3.1604196 17.9891681 -3 20 C-1.7934375 20.6496875 -1.7934375 20.6496875 -0.5625 21.3125 C2 23 2 23 2.8125 25.6875 C2.874375 26.450625 2.93625 27.21375 3 28 C2.443125 27.401875 1.88625 26.80375 1.3125 26.1875 C-0.98556429 24.0136554 -3.24416549 22.53101917 -6 21 C-5.59687038 18.17809264 -5.1737075 16.25678501 -3.5625 13.875 C-1.19505728 9.51890539 -0.72423659 4.86516582 0 0 Z " fill="#3B454E" transform="translate(370,557)"/>
<path d="M0 0 C2.97 0.33 5.94 0.66 9 1 C9 1.33 9 1.66 9 2 C6.36 2 3.72 2 1 2 C1.020625 2.969375 1.04125 3.93875 1.0625 4.9375 C1 8 1 8 0 9 C-1.99958364 9.04080783 -4.00045254 9.04254356 -6 9 C-6 9.99 -6 10.98 -6 12 C-4.02 12 -2.04 12 0 12 C-2.35438733 13.42944945 -3.48032433 14.08661261 -6.25 13.625 C-6.8275 13.41875 -7.405 13.2125 -8 13 C-8 11.35 -8 9.7 -8 8 C-5.64561267 6.57055055 -4.51967567 5.91338739 -1.75 6.375 C-1.1725 6.58125 -0.595 6.7875 0 7 C0 4.69 0 2.38 0 0 Z " fill="#B04987" transform="translate(405,530)"/>
<path d="M0 0 C0.33 0 0.66 0 1 0 C1 2.64 1 5.28 1 8 C3.97 8 6.94 8 10 8 C9.67 6.02 9.34 4.04 9 2 C10.32 1.34 11.64 0.68 13 0 C13.99 0.66 14.98 1.32 16 2 C14.68 2.33 13.36 2.66 12 3 C12.020625 3.969375 12.04125 4.93875 12.0625 5.9375 C12 9 12 9 11 10 C9.14712498 10.07226502 7.29166122 10.0838122 5.4375 10.0625 C4.42558594 10.05347656 3.41367187 10.04445313 2.37109375 10.03515625 C1.58863281 10.02355469 0.80617188 10.01195312 0 10 C0 6.7 0 3.4 0 0 Z " fill="#626949" transform="translate(390,557)"/>
<path d="M0 0 C-2 2 -2 2 -5.4375 3.4375 C-9.81813631 5.35883171 -11.29617659 6.31864407 -13.125 10.6875 C-14.12694798 14.48058877 -14.59650645 18.09956234 -15 22 C-15.33 22 -15.66 22 -16 22 C-16.62110153 11.33775713 -16.62110153 11.33775713 -14.375 6.5 C-9.9241857 1.81493231 -6.61041255 -0.6295631 0 0 Z " fill="#48594E" transform="translate(387,543)"/>
<path d="M0 0 C2.2477975 2.05233685 3.0022242 3.00667261 4 6 C4.06802967 7.72795352 4.08495645 9.45835365 4.0625 11.1875 C4.05347656 12.08855469 4.04445313 12.98960937 4.03515625 13.91796875 C4.02355469 14.60503906 4.01195312 15.29210937 4 16 C3.01 16 2.02 16 1 16 C0.67 14.02 0.34 12.04 0 10 C-3.28696233 9.20046862 -4.71023192 8.90341064 -8 10 C-8 9.01 -8 8.02 -8 7 C-1.84765625 6.90234375 -1.84765625 6.90234375 0 7 C0.33 7.33 0.66 7.66 1 8 C0.67 5.36 0.34 2.72 0 0 Z " fill="#C13F84" transform="translate(421,536)"/>
<path d="M0 0 C0.86625 0.3403125 0.86625 0.3403125 1.75 0.6875 C1.75 1.3475 1.75 2.0075 1.75 2.6875 C2.41 3.0175 3.07 3.3475 3.75 3.6875 C3.09 3.6875 2.43 3.6875 1.75 3.6875 C1.75 5.9975 1.75 8.3075 1.75 10.6875 C0.1 10.3575 -1.55 10.0275 -3.25 9.6875 C-2.26 9.3575 -1.27 9.0275 -0.25 8.6875 C-0.25 7.0375 -0.25 5.3875 -0.25 3.6875 C-3.22 3.1925 -3.22 3.1925 -6.25 2.6875 C-2.80384615 -0.38942308 -2.80384615 -0.38942308 0 0 Z " fill="#40545C" transform="translate(390.25,540.3125)"/>
<path d="M0 0 C2.46528135 0.39064415 3.73307988 0.73239371 5.51953125 2.5234375 C6.15955078 3.43996094 6.15955078 3.43996094 6.8125 4.375 C7.25207031 4.98085938 7.69164062 5.58671875 8.14453125 6.2109375 C9 8 9 8 8 11 C7.01 10.01 6.02 9.02 5 8 C4.67 8.66 4.34 9.32 4 10 C3.32845067 8.71086513 2.66291141 7.41859796 2 6.125 C1.62875 5.40570313 1.2575 4.68640625 0.875 3.9453125 C0 2 0 2 0 0 Z " fill="#606060" transform="translate(539,399)"/>
<path d="M0 0 C0.33 0.99 0.66 1.98 1 3 C8.26 3 15.52 3 23 3 C23 3.33 23 3.66 23 4 C16.07 4 9.14 4 2 4 C2 4.66 2 5.32 2 6 C0.68 6 -0.64 6 -2 6 C-1.125 1.125 -1.125 1.125 0 0 Z " fill="#676768" transform="translate(587,355)"/>
<path d="M0 0 C10.55808656 -0.55353075 10.55808656 -0.55353075 15 3 C11.52128379 4.15957207 10.65780355 3.77456651 7.3125 2.5625 C6.50425781 2.27503906 5.69601562 1.98757813 4.86328125 1.69140625 C4.24839844 1.46324219 3.63351562 1.23507812 3 1 C2.34 2.65 1.68 4.3 1 6 C0.67 6 0.34 6 0 6 C0 4.02 0 2.04 0 0 Z " fill="#D9317A" transform="translate(406,532)"/>
<path d="M0 0 C0 2.61674859 -0.27101621 4.50141113 -0.875 7.01171875 C-1.05546875 7.76904297 -1.2359375 8.52636719 -1.421875 9.30664062 C-1.61265625 10.09232422 -1.8034375 10.87800781 -2 11.6875 C-2.19078125 12.48478516 -2.3815625 13.28207031 -2.578125 14.10351562 C-3.04907535 16.06973333 -3.52414266 18.0349641 -4 20 C-4.66 20 -5.32 20 -6 20 C-5.57459662 17.60144902 -5.1351976 15.20690259 -4.6875 12.8125 C-4.56955078 12.13896484 -4.45160156 11.46542969 -4.33007812 10.77148438 C-3.53997472 6.61837674 -2.40983102 3.47636687 0 0 Z " fill="#DCBB54" transform="translate(376,549)"/>
<path d="M0 0 C2.10478604 0.11409682 4.20884577 0.24165361 6.3125 0.375 C7.48425781 0.44460938 8.65601563 0.51421875 9.86328125 0.5859375 C13 1 13 1 16 3 C14.083412 3.02712153 12.1667127 3.04645097 10.25 3.0625 C8.64898438 3.07990234 8.64898438 3.07990234 7.015625 3.09765625 C4.46631499 3.01510087 2.42066409 2.74617558 0 2 C0 1.34 0 0.68 0 0 Z " fill="#343434" transform="translate(505,405)"/>
<path d="M0 0 C0.33 0.99 0.66 1.98 1 3 C3.64 3 6.28 3 9 3 C9 3.66 9 4.32 9 5 C2.9453125 5.9765625 2.9453125 5.9765625 1 6 C0.34 5.34 -0.32 4.68 -1 4 C-0.625 1.875 -0.625 1.875 0 0 Z " fill="#A1A1A1" transform="translate(562,437)"/>
<path d="M0 0 C0.33 0.99 0.66 1.98 1 3 C-2.96 3 -6.92 3 -11 3 C-6.577168 -0.317124 -5.28089024 -0.30466674 0 0 Z " fill="#B1AFB1" transform="translate(551,355)"/>
<path d="M0 0 C0.33 0 0.66 0 1 0 C1 3.3 1 6.6 1 10 C-1.31 10 -3.62 10 -6 10 C-6 8.35 -6 6.7 -6 5 C-5.34 5.66 -4.68 6.32 -4 7 C-1.93125966 7.6425235 -1.93125966 7.6425235 0 8 C0 5.36 0 2.72 0 0 Z " fill="#535476" transform="translate(426,544)"/>
<path d="M0 0 C0.66 0 1.32 0 2 0 C2.66 2.31 3.32 4.62 4 7 C6.31 7 8.62 7 11 7 C11 7.33 11 7.66 11 8 C9.741875 8.04125 8.48375 8.0825 7.1875 8.125 C6.47980469 8.14820313 5.77210938 8.17140625 5.04296875 8.1953125 C3 8 3 8 0 6 C-0.1875 2.875 -0.1875 2.875 0 0 Z " fill="#DCB848" transform="translate(374,588)"/>
<path d="M0 0 C1.67542976 0.28604898 3.34385343 0.61781233 5 1 C3.02 1.99 3.02 1.99 1 3 C1 4.98 1 6.96 1 9 C-0.5625 7.8125 -0.5625 7.8125 -2 6 C-1.57894737 1.57894737 -1.57894737 1.57894737 0 0 Z " fill="#535B55" transform="translate(401,557)"/>
<path d="M0 0 C0.33 0 0.66 0 1 0 C1 3.3 1 6.6 1 10 C0.01 10 -0.98 10 -2 10 C-2 8.02 -2 6.04 -2 4 C-1.34 4 -0.68 4 0 4 C0 2.68 0 1.36 0 0 Z " fill="#AD4A86" transform="translate(424,542)"/>
<path d="M0 0 C0.99 0 1.98 0 3 0 C3 2.64 3 5.28 3 8 C2.34 8 1.68 8 1 8 C0.67 5.36 0.34 2.72 0 0 Z " fill="#F8C12B" transform="translate(403,560)"/>
<path d="M0 0 C2.9375 1.1875 2.9375 1.1875 6 3 C6.875 5.6875 6.875 5.6875 7 8 C6.401875 7.360625 5.80375 6.72125 5.1875 6.0625 C3.09189663 3.79689611 3.09189663 3.79689611 0 3 C0 2.01 0 1.02 0 0 Z " fill="#555A52" transform="translate(366,577)"/>
<path d="M0 0 C0.33 0.99 0.66 1.98 1 3 C-1.97 3 -4.94 3 -8 3 C-4.93882432 0.37613513 -4.26826873 0 0 0 Z " fill="#969696" transform="translate(524,439)"/>
<path d="M0 0 C-0.33 2.31 -0.66 4.62 -1 7 C-1.33 7 -1.66 7 -2 7 C-2 5.35 -2 3.7 -2 2 C-3.98 2 -5.96 2 -8 2 C-4.91190305 0.23537317 -3.76687864 0 0 0 Z " fill="#5E4E72" transform="translate(405,543)"/>
<path d="M0 0 C-2.6855594 2.6855594 -5.37621328 3.06049974 -9 4 C-8.67 3.01 -8.34 2.02 -8 1 C-5.29120665 -0.35439668 -2.99066732 -0.06501451 0 0 Z " fill="#484F3A" transform="translate(387,543)"/>
<path d="M0 0 C0.99 0.33 1.98 0.66 3 1 C2.67 2.98 2.34 4.96 2 7 C1.01 6.67 0.02 6.34 -1 6 C-0.67 4.02 -0.34 2.04 0 0 Z " fill="#989898" transform="translate(542,425)"/>
<path d="M0 0 C0 0.99 0 1.98 0 3 C-0.99 3.495 -0.99 3.495 -2 4 C-1.34 2.68 -0.68 1.36 0 0 Z " fill="#1B1B1C" transform="translate(642,511)"/>
<path d="M0 0 C0.99 0.33 1.98 0.66 3 1 C2.01 1 1.02 1 0 1 C0 0.67 0 0.34 0 0 Z " fill="#545559" transform="translate(399,548)"/>
<path d="M0 0 C0.99 0.33 1.98 0.66 3 1 C2.01 1 1.02 1 0 1 C0 0.67 0 0.34 0 0 Z " fill="#262F31" transform="translate(383,536)"/>
<path d="M0 0 C0 3 0 3 0 3 Z " fill="#2C2C2D" transform="translate(651,499)"/>
<path d="M0 0 C2 1 2 1 2 1 Z " fill="#586360" transform="translate(396,546)"/>
<path d="" fill="#303033" transform="translate(0,0)"/>
<path d="" fill="#2E2E2E" transform="translate(0,0)"/>
<path d="" fill="#FFFFFF" transform="translate(0,0)"/>
<path d="" fill="#FFFFFF" transform="translate(0,0)"/>
<path d="" fill="#FFFFFF" transform="translate(0,0)"/>
<path d="" fill="#FFFFFF" transform="translate(0,0)"/>
<path d="" fill="#FFFFFF" transform="translate(0,0)"/>
<path d="" fill="#FFFFFF" transform="translate(0,0)"/>
<path d="" fill="#FFFFFF" transform="translate(0,0)"/>
<path d="" fill="#FFFFFF" transform="translate(0,0)"/>
<path d="" fill="#FFFFFF" transform="translate(0,0)"/>
<path d="" fill="#FFFFFF" transform="translate(0,0)"/>
<path d="" fill="#FFFFFF" transform="translate(0,0)"/>
<path d="" fill="#FFFFFF" transform="translate(0,0)"/>
<path d="" fill="#FFFFFF" transform="translate(0,0)"/>
<path d="" fill="#FFFFFF" transform="translate(0,0)"/>
<path d="" fill="#FFFFFF" transform="translate(0,0)"/>
<path d="" fill="#FFFFFF" transform="translate(0,0)"/>
<path d="" fill="#FFFFFF" transform="translate(0,0)"/>
<path d="" fill="#FFFFFF" transform="translate(0,0)"/>
<path d="" fill="#FFFFFF" transform="translate(0,0)"/>
<path d="" fill="#FFFFFF" transform="translate(0,0)"/>
<path d="" fill="#FFFFFF" transform="translate(0,0)"/>
<path d="" fill="#FFFFFF" transform="translate(0,0)"/>
<path d="" fill="#FFFFFF" transform="translate(0,0)"/>
<path d="" fill="#FFFFFF" transform="translate(0,0)"/>
<path d="" fill="#FFFFFF" transform="translate(0,0)"/>
<path d="" fill="#FFFFFF" transform="translate(0,0)"/>
<path d="" fill="#FFFFFF" transform="translate(0,0)"/>
<path d="" fill="#FFFFFF" transform="translate(0,0)"/>
<path d="" fill="#FFFFFF" transform="translate(0,0)"/>
<path d="" fill="#FFFFFF" transform="translate(0,0)"/>
<path d="" fill="#FFFFFF" transform="translate(0,0)"/>
<path d="" fill="#FFFFFF" transform="translate(0,0)"/>
<path d="" fill="#FFFFFF" transform="translate(0,0)"/>
<path d="" fill="#FFFFFF" transform="translate(0,0)"/>
<path d="" fill="#FFFFFF" transform="translate(0,0)"/>
<path d="" fill="#FFFFFF" transform="translate(0,0)"/>
<path d="" fill="#FFFFFF" transform="translate(0,0)"/>
<path d="" fill="#FFFFFF" transform="translate(0,0)"/>
<path d="" fill="#FFFFFF" transform="translate(0,0)"/>
<path d="" fill="#FFFFFF" transform="translate(0,0)"/>
<path d="" fill="#FFFFFF" transform="translate(0,0)"/>
<path d="" fill="#FFFFFF" transform="translate(0,0)"/>
<path d="" fill="#FFFFFF" transform="translate(0,0)"/>
<path d="" fill="#474244" transform="translate(0,0)"/>
<path d="" fill="#424C4D" transform="translate(0,0)"/>
<path d="" fill="#52555E" transform="translate(0,0)"/>
<path d="" fill="#FFFFFF" transform="translate(0,0)"/>
<path d="" fill="#293027" transform="translate(0,0)"/>
<path d="" fill="#1F2C1D" transform="translate(0,0)"/>
<path d="" fill="#0D0C0E" transform="translate(0,0)"/>
<path d="" fill="#FFFFFF" transform="translate(0,0)"/>
<path d="" fill="#101010" transform="translate(0,0)"/>
<path d="" fill="#222225" transform="translate(0,0)"/>
<path d="" fill="#28282C" transform="translate(0,0)"/>
<path d="" fill="#FFFFFF" transform="translate(0,0)"/>
<path d="" fill="#252525" transform="translate(0,0)"/>
<path d="" fill="#272727" transform="translate(0,0)"/>
<path d="" fill="#FFFFFF" transform="translate(0,0)"/>
<path d="" fill="#252525" transform="translate(0,0)"/>
<path d="" fill="#FFFFFF" transform="translate(0,0)"/>
<path d="" fill="#0D0D0F" transform="translate(0,0)"/>
<path d="" fill="#FFFFFF" transform="translate(0,0)"/>
<path d="" fill="#FFFFFF" transform="translate(0,0)"/>
<path d="" fill="#FFFFFF" transform="translate(0,0)"/>
<path d="" fill="#FFFFFF" transform="translate(0,0)"/>
<path d="" fill="#FFFFFF" transform="translate(0,0)"/>
<path d="" fill="#FFFFFF" transform="translate(0,0)"/>
<path d="" fill="#FFFFFF" transform="translate(0,0)"/>
<path d="" fill="#FFFFFF" transform="translate(0,0)"/>
<path d="" fill="#000000" transform="translate(0,0)"/>
<path d="" fill="#FFFFFF" transform="translate(0,0)"/>
<path d="" fill="#FFFFFF" transform="translate(0,0)"/>
<path d="" fill="#FFFFFF" transform="translate(0,0)"/>
<path d="" fill="#FFFFFF" transform="translate(0,0)"/>
<path d="" fill="#FFFFFF" transform="translate(0,0)"/>
<path d="" fill="#FFFFFF" transform="translate(0,0)"/>
<path d="" fill="#FFFFFF" transform="translate(0,0)"/>
<path d="" fill="#FFFFFF" transform="translate(0,0)"/>
<path d="" fill="#FFFFFF" transform="translate(0,0)"/>
<path d="" fill="#FFFFFF" transform="translate(0,0)"/>
<path d="" fill="#FFFFFF" transform="translate(0,0)"/>
<path d="" fill="#FFFFFF" transform="translate(0,0)"/>
<path d="" fill="#FFFFFF" transform="translate(0,0)"/>
<path d="" fill="#FFFFFF" transform="translate(0,0)"/>
<path d="" fill="#FFFFFF" transform="translate(0,0)"/>
<path d="" fill="#FFFFFF" transform="translate(0,0)"/>
<path d="" fill="#FFFFFF" transform="translate(0,0)"/>
<path d="" fill="#FFFFFF" transform="translate(0,0)"/>
<path d="" fill="#FFFFFF" transform="translate(0,0)"/>
<path d="" fill="#FFFFFF" transform="translate(0,0)"/>
<path d="" fill="#FFFFFF" transform="translate(0,0)"/>
<path d="" fill="#FFFFFF" transform="translate(0,0)"/>
<path d="" fill="#FFFFFF" transform="translate(0,0)"/>
<path d="" fill="#FFFFFF" transform="translate(0,0)"/>
<path d="" fill="#FFFFFF" transform="translate(0,0)"/>
<path d="" fill="#FFFFFF" transform="translate(0,0)"/>
<path d="" fill="#FFFFFF" transform="translate(0,0)"/>
</svg>
